<?xml version="1.0" standalone="no"?>
<!DOCTYPE svg PUBLIC "-//W3C//DTD SVG 20010904//EN"
 "http://www.w3.org/TR/2001/REC-SVG-20010904/DTD/svg10.dtd">
<svg version="1.0" xmlns="http://www.w3.org/2000/svg"
 width="976.000000pt" height="976.000000pt" viewBox="0 0 976.000000 976.000000"
 preserveAspectRatio="xMidYMid meet">
<metadata>
Created by potrace 1.14, written by Peter Selinger 2001-2017
</metadata>
<g transform="translate(0.000000,976.000000) scale(0.100000,-0.100000)"
fill="#000000" stroke="none">
<path d="M2058 8075 c-2 -1 -28 -5 -58 -9 -60 -6 -101 -13 -140 -22 -14 -3
-36 -8 -50 -11 -74 -13 -338 -118 -360 -142 -3 -4 -16 -12 -30 -19 -47 -24
-160 -114 -225 -178 -59 -59 -161 -187 -194 -244 -71 -122 -131 -270 -148
-365 -2 -11 -21 -93 -43 -182 -22 -89 -42 -173 -44 -185 -3 -13 -14 -56 -25
-95 -10 -40 -17 -73 -14 -73 3 0 0 -7 -7 -15 -7 -8 -10 -15 -7 -15 3 0 1 -15
-4 -32 -6 -18 -12 -44 -15 -58 -3 -14 -8 -34 -11 -45 -7 -21 -8 -24 -16 -65
-3 -14 -17 -72 -32 -130 -15 -58 -28 -112 -30 -120 -2 -8 -26 -107 -55 -220
-28 -113 -53 -216 -56 -228 -3 -13 -12 -49 -20 -80 -8 -32 -17 -66 -18 -77 -2
-11 -6 -30 -10 -42 -4 -12 -9 -30 -11 -40 -2 -10 -11 -45 -19 -78 -9 -33 -18
-71 -21 -85 -3 -14 -16 -70 -30 -125 -14 -55 -28 -109 -30 -120 -3 -11 -23
-92 -45 -180 -23 -88 -43 -171 -46 -185 -3 -14 -14 -61 -25 -105 -12 -44 -22
-87 -24 -95 -2 -8 -22 -89 -45 -180 -22 -91 -43 -172 -45 -181 -2 -8 -11 -46
-20 -83 -9 -37 -18 -75 -20 -84 -2 -9 -4 -17 -5 -17 -1 0 -4 -13 -6 -30 -3
-16 -7 -37 -11 -45 -7 -16 -8 -22 -17 -60 -3 -14 -10 -43 -15 -65 -30 -118 12
-216 114 -269 l50 -26 352 0 c395 0 356 8 368 -80 7 -49 32 -160 41 -184 8
-22 24 -10 19 14 -2 11 0 22 5 25 4 3 6 13 3 23 -7 30 35 127 78 175 22 26 66
59 99 75 51 26 71 30 137 30 70 0 78 2 75 19 -4 29 -2 255 3 288 5 37 13 88
20 135 11 70 55 216 88 290 25 59 79 164 86 170 3 3 12 16 19 30 43 83 226
288 317 355 22 17 42 32 45 35 17 19 158 103 230 137 104 50 252 101 345 119
11 2 31 6 45 9 77 17 345 24 415 11 17 -3 50 -8 75 -12 25 -3 59 -9 75 -14 17
-5 41 -11 55 -14 43 -8 142 -42 220 -77 86 -38 223 -116 228 -130 2 -5 8 -9
14 -9 9 0 85 -57 119 -90 9 -8 36 -33 60 -56 25 -22 65 -65 90 -95 24 -30 47
-56 50 -59 11 -9 86 -124 112 -171 42 -77 45 -83 65 -129 18 -43 52 -139 71
-205 10 -34 20 -86 37 -200 10 -63 9 -283 0 -355 -10 -70 -14 -95 -16 -95 -2
0 -5 -16 -14 -59 -16 -87 -118 -325 -176 -411 -11 -16 -23 -37 -27 -45 -3 -8
-9 -17 -13 -20 -3 -3 -29 -34 -57 -70 -52 -66 -171 -185 -232 -230 -18 -14
-45 -34 -59 -46 -78 -61 -251 -147 -387 -193 -83 -28 -106 -34 -175 -47 -14
-2 -34 -6 -45 -9 -99 -21 -450 -22 -485 0 -3 2 -26 6 -50 10 -83 11 -274 76
-375 128 -55 28 -101 55 -103 59 -2 4 -9 8 -15 8 -7 0 -25 11 -41 23 l-29 24
-66 -34 c-40 -20 -88 -36 -121 -39 -98 -10 -135 -38 -146 -111 -11 -76 -14
-92 -23 -115 -7 -20 -2 -28 48 -65 31 -24 61 -47 67 -52 6 -5 24 -16 40 -25
16 -9 43 -25 59 -36 103 -65 330 -166 443 -196 28 -8 78 -21 110 -30 31 -8 73
-17 92 -19 19 -3 46 -7 60 -10 85 -18 375 -27 485 -14 100 12 146 18 175 24
14 3 39 8 55 11 178 32 439 138 625 253 250 155 486 397 632 646 83 143 197
430 213 539 3 21 8 42 11 47 3 5 8 30 11 56 9 81 5 78 156 78 75 0 138 -3 141
-5 5 -6 9 -26 21 -104 7 -43 8 -46 29 -131 106 -424 356 -795 717 -1064 67
-50 127 -91 135 -91 8 0 14 -4 14 -9 0 -5 8 -11 18 -14 9 -3 44 -21 77 -40
122 -68 364 -158 485 -180 14 -3 36 -8 50 -11 98 -22 209 -31 390 -31 163 1
212 4 320 25 30 6 69 12 85 15 17 2 42 8 58 14 15 6 27 8 27 5 0 -4 7 -1 15 6
8 7 15 10 15 6 0 -3 12 -1 28 5 15 6 34 12 42 14 64 14 348 143 383 173 9 8
17 12 17 9 0 -4 8 0 18 8 9 8 50 37 91 64 140 94 289 233 398 371 37 47 71 87
75 88 5 2 8 8 8 13 0 5 18 35 39 67 34 49 151 271 151 286 0 2 5 17 12 33 6
15 12 30 13 33 1 3 6 16 12 30 29 66 93 336 93 391 0 10 3 19 8 20 4 1 165 2
357 3 382 3 388 4 452 62 65 60 84 150 54 259 -6 22 -15 58 -20 80 -5 22 -16
65 -24 96 -9 30 -18 66 -20 80 -2 13 -7 31 -10 39 -5 13 -74 298 -82 340 -2 8
-4 15 -5 15 -2 0 -9 27 -15 65 -3 19 -10 46 -15 60 -7 19 -28 104 -35 140 -7
34 -18 81 -26 105 -7 24 -46 184 -64 265 -2 8 -31 125 -65 260 -34 135 -63
252 -65 260 -1 8 -33 137 -70 285 -101 411 -157 638 -160 655 -2 8 -11 44 -20
80 -9 36 -18 72 -20 80 -2 8 -11 44 -20 80 -10 36 -19 74 -21 85 -2 11 -12 53
-23 93 -10 39 -17 72 -15 72 3 0 0 8 -5 18 -10 19 -18 51 -26 104 -7 46 -44
173 -64 223 -36 84 -120 234 -163 290 -57 74 -192 210 -226 229 -9 5 -21 15
-27 21 -35 40 -240 150 -345 185 -36 11 -72 24 -80 27 -20 8 -55 16 -117 28
-16 3 -38 7 -50 10 -49 11 -163 20 -268 20 -119 0 -150 -9 -208 -64 -72 -66
-93 -183 -47 -271 47 -92 118 -130 254 -136 152 -7 209 -16 321 -51 172 -54
305 -147 408 -285 15 -20 27 -41 27 -47 0 -6 4 -11 9 -11 6 0 57 -99 66 -130
1 -3 7 -25 15 -50 7 -25 15 -54 17 -65 2 -11 8 -38 14 -60 12 -45 11 -40 39
-155 11 -47 22 -92 24 -100 9 -32 89 -356 90 -365 1 -5 5 -19 9 -30 3 -11 9
-31 11 -45 5 -23 34 -144 56 -230 5 -19 14 -55 19 -80 6 -25 15 -60 20 -78 5
-18 10 -35 10 -37 1 -9 11 -49 62 -255 28 -113 52 -212 54 -220 3 -16 19 -81
204 -833 61 -247 113 -460 115 -473 3 -13 7 -28 10 -33 4 -5 8 -22 11 -38 3
-15 8 -43 11 -61 l6 -33 -91 3 c-50 2 -91 1 -91 -2 0 -3 -22 -5 -50 -5 -27 0
-50 3 -50 6 0 3 -11 4 -25 1 -14 -2 -25 0 -26 4 -5 52 -28 169 -45 231 -9 29
-16 56 -16 60 0 5 -6 24 -13 43 -14 37 -24 67 -25 75 -1 5 -55 129 -73 165
-43 90 -135 242 -149 248 -5 2 -8 10 -8 17 0 7 -3 15 -7 17 -5 2 -28 30 -53
63 -44 59 -202 223 -270 280 -62 53 -182 135 -196 135 -23 0 -89 -46 -134 -92
-59 -62 -99 -150 -105 -235 l-5 -69 63 -47 c97 -71 263 -240 301 -306 5 -8 17
-24 26 -34 9 -9 23 -30 31 -45 8 -15 16 -29 19 -32 31 -28 147 -312 166 -404
55 -268 51 -407 -21 -728 -7 -31 -77 -202 -103 -253 -84 -160 -220 -328 -353
-436 -23 -19 -46 -39 -53 -44 -6 -6 -33 -25 -61 -42 -27 -18 -55 -36 -60 -41
-16 -13 -206 -107 -235 -116 -14 -5 -27 -9 -30 -10 -120 -48 -349 -88 -495
-88 -260 1 -563 86 -762 215 -24 15 -47 27 -52 27 -5 0 -11 3 -13 8 -1 4 -21
20 -43 37 -72 53 -78 59 -155 136 -108 108 -150 161 -227 285 -52 82 -140 302
-158 389 -36 184 -42 235 -39 368 1 78 5 153 8 167 3 14 11 50 17 80 16 85 58
218 90 289 29 65 30 73 4 77 -32 5 -92 29 -125 49 -93 60 -146 167 -149 301
-1 41 -28 35 -60 -14 -114 -178 -217 -463 -247 -682 -3 -25 -8 -47 -10 -49 -2
-3 -68 -5 -145 -5 -163 -1 -149 -11 -169 114 -7 41 -14 82 -16 90 -36 150 -70
249 -129 375 -46 100 -124 238 -137 243 -4 2 -8 8 -8 13 0 15 -110 159 -121
159 -6 0 -8 4 -5 8 2 4 -46 57 -107 118 -172 170 -291 256 -496 361 -69 36
-127 64 -128 64 -5 -1 -38 10 -53 18 -19 10 -203 67 -245 76 -16 3 -50 10 -75
16 -108 23 -223 33 -380 33 -134 0 -239 -6 -300 -19 -14 -3 -41 -8 -60 -11
-75 -12 -313 -78 -335 -94 -5 -3 -32 -15 -60 -25 -27 -10 -69 -29 -92 -42 -24
-13 -43 -20 -43 -16 0 4 -4 4 -8 -2 -4 -5 -27 -21 -52 -34 -260 -139 -530
-394 -693 -659 -104 -168 -213 -429 -233 -557 -2 -11 -8 -39 -14 -63 -10 -43
-18 -92 -19 -124 -2 -38 -22 -43 -182 -43 l-154 1 4 24 c4 32 9 54 11 58 3 3
5 10 15 57 13 56 12 55 15 58 1 1 3 9 5 17 3 16 51 219 62 260 3 14 7 30 8 35
2 6 10 37 19 70 10 33 19 74 22 90 3 17 10 48 16 70 6 22 12 45 14 50 5 26 48
200 99 405 31 124 58 236 61 250 2 14 7 32 10 40 3 8 8 26 10 40 3 14 16 68
29 120 25 99 144 584 150 610 2 8 11 44 20 80 9 36 19 73 21 83 9 41 14 59 48
195 20 78 38 152 40 165 3 12 12 51 21 87 9 36 18 73 20 83 45 216 99 366 168
467 31 45 149 170 161 170 4 0 15 8 26 18 10 9 40 28 67 42 26 14 50 27 53 30
15 15 180 67 240 75 14 2 41 6 60 10 19 4 73 8 120 9 117 4 174 22 224 73 112
111 86 289 -52 370 -44 26 -56 28 -164 30 -64 0 -118 0 -120 -2z"/>
<path d="M7421 6175 c-2 -5 -4 -19 -6 -30 -32 -222 -167 -415 -366 -522 -44
-24 -105 -50 -139 -58 -3 -1 -12 -5 -20 -8 -18 -8 -65 -15 -104 -16 -37 -1
-31 -7 14 -15 19 -3 46 -8 60 -11 34 -6 154 -48 160 -55 3 -4 20 -12 38 -19
17 -8 32 -16 32 -20 0 -4 16 -15 35 -25 31 -17 120 -104 167 -164 16 -20 51
-81 53 -92 0 -3 8 -19 17 -35 19 -36 50 -139 53 -178 4 -48 11 -40 23 28 7 35
21 84 31 109 11 24 17 47 14 50 -4 3 -1 6 5 6 7 0 12 5 12 12 0 14 57 104 90
142 45 51 94 96 135 124 22 15 42 29 45 32 24 26 244 99 299 100 41 0 17 9
-37 14 -90 8 -241 70 -322 134 -66 52 -129 120 -175 190 -25 39 -45 75 -45 80
0 5 -7 23 -16 41 -9 17 -17 37 -18 44 -2 7 -8 30 -14 52 -6 22 -13 54 -15 70
-2 17 -5 26 -6 20z"/>
<path d="M6300 5406 c-95 -34 -240 -94 -230 -97 3 0 26 -2 53 -4 102 -8 218
-89 259 -181 23 -53 28 -75 29 -131 2 -45 12 -52 47 -34 14 8 110 33 176 47
18 3 104 14 156 19 14 2 76 3 138 4 127 1 127 2 60 70 -74 76 -168 117 -287
126 -34 2 -78 9 -99 15 -77 21 -160 96 -197 177 l-10 22 -95 -33z"/>
<path d="M5645 5348 c-3 -7 -6 -22 -8 -33 -26 -143 -183 -298 -324 -321 -46
-7 -57 -19 -21 -21 23 -2 75 -22 136 -52 30 -14 120 -95 147 -132 20 -26 55
-108 64 -149 11 -48 22 -64 20 -29 -2 31 27 113 56 159 58 91 165 170 263 192
29 6 56 16 59 21 3 6 1 7 -5 3 -17 -10 -131 32 -189 70 -28 19 -67 53 -87 75
-49 57 -113 199 -100 220 3 5 3 9 -1 9 -3 0 -8 -6 -10 -12z"/>
<path d="M1281 3069 c-3 -73 -76 -208 -141 -259 -18 -14 -37 -29 -44 -35 -33
-29 -168 -79 -180 -67 -3 3 -6 1 -6 -4 0 -6 23 -16 52 -23 78 -20 127 -50 196
-118 64 -64 107 -139 118 -211 7 -41 13 -54 15 -29 1 9 2 20 4 25 1 4 5 20 10
35 32 115 125 220 241 273 41 19 79 32 84 29 5 -3 11 -1 15 5 4 6 11 7 17 4 6
-4 8 -2 5 3 -4 6 -26 13 -49 17 -47 8 -141 55 -179 90 -72 67 -116 141 -144
241 -9 34 -13 42 -14 24z"/>
</g>
</svg>
